<svg width="321" height="450" viewBox="0 0 321 450" fill="none" xmlns="http://www.w3.org/2000/svg">
<path d="M152.727 11.0738C154.322 11.8792 154.92 12.4832 156.515 12.8859C157.911 13.2885 159.905 14.2952 160.304 13.0872C160.902 11.8792 160.104 10.2685 159.107 8.85908C157.512 6.24167 156.715 5.63765 154.522 2.01355C154.123 1.20819 153.724 0.402832 152.927 0.402832C152.927 0.402832 152.727 3.02024 151.93 4.63096C151.332 6.04033 149.736 7.04703 149.936 8.05373C150.135 9.06042 151.132 10.2685 152.727 11.0738Z" fill="#E2E2E2"/>
<path d="M318.269 183.232C316.475 185.648 315.677 190.48 313.085 194.507C309.496 200.144 304.312 206.99 301.72 206.99C300.325 206.99 299.926 203.768 299.926 203.768C299.926 203.768 298.131 198.332 301.122 191.487C303.315 186.654 304.512 185.245 307.303 181.621C309.895 178.198 311.49 176.386 313.285 172.762C314.88 169.541 315.278 168.937 316.275 163.903C316.475 162.695 316.076 160.078 314.88 160.279C313.285 160.279 308.898 169.943 304.312 175.379C299.926 180.413 291.751 186.856 291.751 186.856C291.751 186.856 290.954 187.46 290.954 185.849C290.754 184.44 290.555 180.212 291.352 176.386C292.15 172.561 293.346 168.735 296.736 162.896C300.524 156.252 305.309 151.621 307.702 149.205C308.699 148.199 311.689 146.387 310.094 145.38C308.699 144.574 304.512 148.199 301.322 150.615C297.334 153.635 295.938 154.44 291.951 159.272C287.963 164.104 286.966 166.118 286.966 166.118C286.966 166.118 283.178 172.359 282.181 178.399C281.184 184.44 281.184 187.862 281.184 187.862C281.184 187.862 281.184 193.299 281.782 196.52C282.181 199.943 283.577 205.178 283.577 205.178C283.577 205.178 285.57 211.016 286.368 214.641C287.165 218.265 288.561 228.936 288.561 228.936C288.561 228.936 289.558 236.587 288.96 243.835C288.362 251.083 287.764 255.311 286.966 257.526C286.168 259.741 283.975 265.579 280.386 269.606C276.997 273.432 276.199 274.036 276.199 274.036C276.199 274.036 272.61 277.056 269.62 278.666C266.629 280.277 262.243 282.291 260.249 282.895C258.255 283.297 255.464 283.499 255.264 283.499H252.672L251.875 282.895L251.476 281.284C251.476 281.284 249.482 273.432 247.089 268.398C245.096 264.17 240.909 258.331 240.909 258.331C240.909 258.331 233.731 248.466 228.148 243.029C221.768 236.587 214.59 231.754 210.204 228.332C208.609 227.124 205.02 224.909 205.02 224.909C205.02 224.909 190.465 210.211 185.281 198.533C181.692 190.48 179.299 184.641 180.296 175.782C180.496 173.769 181.293 169.943 181.692 169.943L184.284 170.749C184.483 170.95 186.876 173.165 189.069 173.97C190.265 174.373 192.459 174.775 192.459 174.775C192.459 174.775 194.253 174.977 195.25 175.178C196.247 175.581 198.041 176.185 199.238 176.789C200.434 177.393 202.228 178.601 202.228 178.601L205.618 181.218L209.207 184.037C209.207 184.037 211.201 185.446 211.799 185.648C212.397 185.849 212.796 186.05 212.995 186.05H213.793C213.793 186.05 214.59 185.849 214.789 185.044C214.989 184.037 213.793 184.842 211.998 182.829C210.004 181.017 209.207 179.406 209.207 179.406C209.207 179.406 208.808 177.795 207.213 175.983C205.618 174.171 203.624 172.561 203.624 172.561C203.624 172.561 202.228 171.554 200.235 170.95C198.241 170.346 197.643 170.346 197.443 169.541C197.244 168.735 199.836 169.138 199.836 169.138C199.836 169.138 202.826 169.541 205.219 170.749C207.612 171.957 209.007 173.366 209.007 173.366L210.602 174.775L211.599 175.782L212.596 176.386C212.596 176.386 213.593 177.393 213.793 175.983C213.992 174.775 213.593 173.769 213.394 173.567L212.397 172.561L208.409 169.138C207.213 167.93 206.415 167.124 205.219 166.319C204.023 165.514 202.228 164.306 200.035 163.5C198.041 162.695 196.845 162.896 194.851 161.89C193.456 161.286 192.259 160.883 191.462 159.675C191.262 159.474 190.265 158.668 192.06 159.071C193.854 159.474 195.051 160.078 197.044 160.48C200.235 161.286 202.228 161.286 205.219 162.292C206.415 162.695 208.01 163.5 208.01 163.5L211.799 165.111C211.799 165.111 216.983 167.93 220.572 168.131C224.16 168.333 227.151 167.527 228.347 166.923C229.544 166.52 231.737 165.111 232.335 164.507C232.933 163.903 233.332 163.299 233.332 163.299L233.731 162.292V161.487C232.734 160.279 230.74 163.5 227.55 164.104C224.16 164.708 224.36 165.111 222.167 164.708C219.774 164.306 218.378 163.702 216.584 161.89C213.394 158.87 212.197 156.051 208.01 154.239C206.216 153.433 203.026 152.628 203.026 152.628C203.026 152.628 198.639 151.219 196.247 149.809C194.452 148.803 190.664 148.199 191.86 146.588C192.459 145.783 197.244 148.601 200.833 149.004C203.425 149.407 205.219 149.205 207.213 149.205C209.207 149.205 211.998 148.601 212.397 148.601C212.796 148.4 214.391 148.601 215.786 149.004C217.182 149.407 217.98 150.011 219.375 150.615C220.771 151.219 222.366 152.225 222.765 152.225L223.562 152.427L223.961 152.024L224.16 151.621L223.961 151.219L223.363 150.816L222.167 150.011C222.167 150.011 220.372 149.004 218.777 147.393C217.182 145.783 215.786 143.97 213.394 143.165C211.001 142.36 208.21 141.957 208.21 141.957L205.418 141.756L204.222 141.554C204.222 141.554 202.228 140.95 203.823 140.548C205.418 140.145 206.216 139.944 206.615 139.944C206.814 139.742 209.606 139.541 211.201 140.145C212.796 140.749 215.388 142.158 215.587 142.158C215.786 142.36 218.179 144.172 220.771 144.776C223.363 145.38 226.752 145.581 226.752 145.581L228.347 145.178L229.145 144.977L229.743 144.574L229.544 143.568C229.544 143.568 229.544 142.762 228.347 142.561C227.151 142.36 224.759 141.957 222.565 140.346C220.372 138.736 218.777 137.125 218.777 137.125C218.777 137.125 217.182 135.716 213.992 134.91C211.001 134.105 210.004 134.105 210.004 134.105L209.007 133.702L206.814 132.695C206.814 132.695 205.817 132.091 205.02 131.085C204.222 130.078 203.026 128.266 206.415 129.273C209.805 130.279 210.602 130.883 210.602 130.883C210.602 130.883 212.397 132.695 213.992 132.897C214.989 133.098 215.786 133.299 216.385 132.494C217.381 131.487 214.59 130.279 212.596 128.87C211.001 127.863 209.406 125.246 209.406 125.246C209.406 125.246 208.21 124.239 210.004 124.642C211.799 125.045 214.989 127.058 214.989 127.058C214.989 127.058 216.584 127.863 217.381 128.065C217.98 128.266 219.575 129.273 220.372 129.675C220.97 129.877 222.765 130.279 223.961 130.883C225.556 131.89 226.354 133.501 227.151 134.105C227.949 134.709 228.547 135.716 229.544 135.917C230.541 136.118 230.74 136.521 231.338 136.118C231.936 135.716 232.136 135.514 232.136 135.514C232.136 135.514 232.335 135.112 231.338 134.508C230.341 133.903 229.145 132.293 229.145 132.293L228.746 131.487L228.547 130.682L227.55 129.071L225.756 126.454C225.756 126.454 222.964 122.628 220.372 121.219C217.98 119.81 216.185 119.004 216.185 119.004C216.185 119.004 214.989 118.4 214.391 117.998C213.394 117.192 212.995 116.588 212.197 115.582C211.201 114.374 210.802 113.568 209.605 112.36C207.412 110.145 200.633 108.937 203.225 107.327C204.621 106.521 206.415 106.924 207.213 107.125C208.01 107.327 209.805 108.132 211.599 108.736C212.796 109.139 213.593 109.139 214.789 109.541C215.986 109.944 217.381 110.145 217.98 110.548C218.578 110.951 219.176 111.756 219.575 111.958C219.774 112.159 221.369 114.776 224.16 116.186C226.952 117.595 228.347 118.602 231.139 118.803C233.332 119.004 236.921 118.199 236.921 118.199C236.921 118.199 237.918 117.796 237.12 116.79C236.123 115.783 236.123 115.582 235.326 115.38C232.136 114.172 229.544 114.575 227.151 112.159C226.154 111.152 225.756 110.951 224.958 109.34C224.16 107.729 224.559 107.327 223.961 106.32C223.562 105.313 222.565 103.904 222.565 103.904C222.565 103.904 219.575 100.28 216.385 98.4678C212.995 96.6557 210.602 94.8437 210.204 94.441C209.606 94.0383 208.409 92.4276 208.409 92.4276L207.412 90.8169L206.814 89.6088C206.415 87.3941 210.403 90.2129 212.596 91.0182C216.185 92.2263 217.98 93.837 221.568 95.045C223.562 95.649 224.759 95.649 226.752 96.4544C230.142 97.8637 231.139 101.287 234.728 101.689C236.722 101.891 240.709 102.696 239.912 100.884C239.114 98.8704 235.126 98.8704 233.133 96.4544C232.136 95.4477 232.136 94.441 231.139 93.4343C229.544 91.4209 225.756 89.6088 225.756 89.6088C225.756 89.6088 224.559 88.6021 223.164 85.7834C221.967 82.9646 218.976 80.9512 213.593 78.3338C210.004 76.5218 202.826 76.1191 205.618 74.3071C207.213 73.099 208.609 73.3004 210.802 73.9044C212.995 74.7097 213.793 75.7164 215.587 76.5218C217.381 77.3271 218.179 77.5285 218.578 77.7298C218.976 77.9312 220.372 78.5352 220.97 78.5352C221.369 78.7365 224.36 79.1392 225.157 79.3405L229.145 80.3472L232.335 81.5553C232.335 81.5553 233.93 82.1593 234.927 82.1593C235.924 82.1593 237.519 81.7566 237.519 81.7566L238.715 80.9513L238.915 80.5486C238.915 80.5486 239.513 79.5419 237.918 79.3405C236.522 79.1392 235.725 79.1392 235.525 79.1392L234.13 78.7365L233.531 78.5352C233.531 78.5352 230.74 76.3204 228.347 75.3137C225.756 74.3071 225.357 74.1057 225.357 74.1057L224.36 73.9044L223.164 73.703C223.164 73.703 222.167 73.703 220.572 72.2937C218.976 70.8843 218.378 70.0789 216.983 68.6696L215.188 66.8575C215.188 66.8575 213.593 65.6495 213.593 64.6428C213.793 63.0321 217.182 66.4548 217.182 66.4548L219.575 68.0655C219.575 68.0655 221.568 69.4749 225.157 69.6762C228.746 69.8776 233.133 68.6696 233.133 68.6696C233.133 68.6696 233.731 68.2669 235.725 68.8709C237.718 69.4749 239.314 70.6829 239.314 70.6829L240.909 72.0923L243.301 74.7097L243.7 74.5084C243.899 74.3071 244.896 73.3004 243.102 71.0856C241.307 68.8709 238.317 66.8575 238.317 66.8575C238.317 66.8575 234.329 64.4414 230.341 63.6361C226.354 62.8307 224.559 62.8307 224.559 62.8307C224.559 62.8307 221.568 62.8307 219.774 60.8173C217.98 58.8039 216.783 56.7905 216.783 56.7905L216.185 53.9718C216.185 53.9718 215.188 52.7638 213.194 51.9584C211.4 51.153 209.406 49.945 209.406 49.945C209.406 49.945 206.415 48.9383 206.216 47.5289C205.618 44.9115 211.201 47.5289 214.191 48.133C216.983 48.737 218.179 49.7437 220.97 50.3477C223.363 50.9517 224.759 51.153 227.351 50.9517C228.746 50.9517 229.544 50.7504 230.939 50.549C232.335 50.549 233.332 50.3477 234.728 50.549C236.722 50.9517 237.519 51.9584 239.513 52.7638C240.709 53.3678 241.307 53.9718 242.703 54.1731C243.899 54.3745 246.292 55.1798 245.893 53.9718L245.295 53.1664C244.298 51.7571 243.102 51.7571 241.906 50.7504C239.314 48.737 238.117 47.1263 235.126 45.7169C233.133 44.7102 231.936 44.3075 229.743 43.9048C228.148 43.7035 226.952 44.1062 225.357 43.7035C223.562 43.0995 222.964 42.2941 221.17 41.2874C218.378 39.6767 216.783 38.2673 213.793 37.0593C211.799 36.2539 208.409 35.4486 208.409 35.4486L207.014 35.2472L206.415 35.0459C203.624 34.0392 211.4 31.8245 214.989 30.8178C216.783 30.4151 217.581 30.0124 219.375 30.2138C220.97 30.4151 222.765 32.6298 224.559 31.6231C227.151 30.2138 221.568 26.3883 219.774 25.7843C217.381 24.7776 213.194 25.5829 213.194 25.5829L204.023 25.3816L201.431 24.9789C201.431 24.9789 199.836 24.9789 198.639 23.5696C197.443 22.1602 192.857 16.5227 187.673 15.7173C182.29 14.912 180.695 15.7173 180.296 15.3146C175.71 8.06643 170.925 6.45572 167.336 3.03295C166.339 2.02625 164.744 -0.18848 164.346 0.012859C163.947 0.214198 163.349 3.23429 162.352 5.8517C161.156 8.87179 161.953 10.2812 162.551 11.4892C163.349 12.6972 164.346 13.5026 162.352 14.7106C160.358 15.9187 157.766 15.516 157.766 15.516C157.766 15.516 155.573 15.1133 153.778 14.1066C151.984 13.3013 148.196 11.6905 148.196 11.6905C148.196 11.6905 144.607 10.6838 142.214 10.8852C139.822 11.0865 139.622 11.2879 137.828 11.4892C136.831 11.4892 136.432 11.4892 135.435 11.6905C134.638 11.8919 133.641 11.2879 133.641 12.2946C133.641 13.3013 135.635 13.3013 137.03 13.9053C138.426 14.5093 141.616 14.5093 141.018 15.3146C140.22 16.12 137.23 16.3213 137.03 16.12C136.831 16.12 134.837 15.7173 133.242 15.7173C130.65 15.9187 130.451 15.9187 126.662 17.7307C126.064 17.9321 126.264 19.3414 127.46 18.9388C128.855 18.5361 130.849 18.1334 133.043 18.1334C135.435 18.1334 136.831 18.9388 139.223 19.5428C141.217 20.1468 141.417 20.5495 144.407 20.9521C145.006 20.9521 146.202 20.5495 146.202 21.3548C146.202 21.7575 145.404 22.3615 145.404 22.3615C145.404 22.3615 143.61 22.7642 143.809 23.3682C144.208 24.1736 145.803 23.3682 146.601 23.3682C147.398 23.3682 148.594 23.5696 148.395 24.3749L147.996 24.9789C145.803 25.583 144.607 25.9856 142.613 26.791C137.628 28.8044 135.635 31.2204 130.849 33.6365C126.264 35.8513 118.886 38.67 118.886 38.67C118.886 38.67 116.693 39.878 113.503 40.6834C110.313 41.4888 110.114 41.2874 107.92 41.6901C105.727 41.8914 104.73 42.2941 102.936 43.3008C101.739 43.9048 101.141 44.5088 100.144 45.5155L97.353 49.7437L95.758 52.1597C95.3592 52.9651 94.9604 53.3678 94.761 54.1731C94.3623 55.1798 94.1629 55.5825 93.9635 56.5892C93.3654 59.0053 93.9635 60.4146 94.3623 62.8307C94.5617 63.4347 94.5617 63.8374 94.761 64.4414C94.9604 65.0454 95.758 65.6495 95.758 65.6495L96.5555 65.8508C96.5555 65.8508 99.3468 65.6495 101.141 65.2468C102.936 64.8441 105.528 64.2401 105.528 64.2401L108.917 63.2334L111.11 62.428C111.11 62.428 112.506 62.428 112.705 63.2334C112.905 63.8374 112.307 64.8441 112.307 64.8441C112.307 64.8441 111.11 65.4481 110.114 65.8508C109.117 66.2535 106.724 66.8575 106.525 67.0588L103.933 67.8642L101.739 68.0655C101.739 68.0655 101.341 68.2669 100.942 68.8709C100.543 69.4749 100.543 69.4749 100.543 69.8776C100.942 70.2803 101.141 70.6829 101.54 71.0856C102.338 71.6896 102.736 72.0923 103.733 72.2937C105.129 72.8977 105.926 72.6963 107.322 72.6963C109.316 72.6963 110.512 72.2937 112.307 71.4883C113.902 70.4816 114.5 70.4816 116.693 69.6762C117.291 69.4749 118.488 69.2736 118.886 69.2736C122.675 68.8709 124.868 69.4749 128.656 70.0789C132.444 70.6829 134.239 71.891 138.027 72.495C142.015 73.099 144.407 74.3071 148.594 73.3004C150.588 72.8977 151.785 71.891 152.781 73.9044C153.778 75.7164 153.579 76.7231 153.579 76.7231C153.579 76.7231 153.579 77.9312 152.183 81.7566C150.788 85.5821 146.401 95.045 146.401 95.045L143.41 101.085C143.41 101.085 141.018 105.917 135.435 112.159C129.852 118.4 129.454 118.803 129.454 118.803C129.454 118.803 126.463 121.018 123.472 124.843C120.481 128.669 120.481 130.078 117.69 132.897C115.896 134.709 114.899 135.716 112.705 137.125C110.512 138.534 107.92 138.132 100.942 142.964C94.9604 147.192 91.7703 150.615 91.3715 150.413C90.9728 150.212 88.9789 148.601 88.1814 148.199C87.5833 147.796 76.0191 139.944 76.0191 139.944L71.2339 136.722L69.0407 135.313L68.6419 134.508L67.4456 132.897C67.4456 132.897 65.6512 130.682 63.458 128.87C61.2648 126.857 58.8722 125.246 55.2833 124.441C51.8938 123.434 49.7006 122.83 46.311 124.038C44.1178 124.843 42.9215 125.649 41.3265 127.259C39.3327 129.273 38.9339 130.883 37.3388 133.299C35.7438 135.716 34.1487 137.93 33.3512 139.138C32.5536 140.346 30.9586 143.568 30.9586 143.568C30.9586 143.568 26.9709 150.011 24.7777 154.239C22.1857 158.87 21.1888 161.688 18.7962 166.118C15.008 173.165 9.62463 180.413 8.22895 183.634C6.83327 186.856 6.63389 187.258 6.63389 187.258C6.63389 187.258 6.23512 189.07 6.03574 190.278C5.83636 191.487 5.83636 193.5 5.63698 194.305C5.43759 195.312 4.83944 196.319 4.64006 196.52C4.44068 196.721 2.24747 201.352 1.44994 204.372C0.652407 207.392 -1.14204 216.855 1.05117 218.063C3.24438 219.271 19.3944 212.224 21.5876 205.379C22.9833 200.949 17.2012 198.735 18.7962 194.708C19.3944 193.299 19.7931 193.097 20.7901 191.688C22.3851 189.07 21.787 183.634 24.7777 178.601C26.9709 174.977 31.3573 170.346 37.3388 163.5C41.1271 159.272 44.716 152.427 44.716 152.427C44.716 152.427 45.5135 150.011 47.1086 150.413C48.903 150.816 50.4981 150.615 50.4981 150.615L51.2956 151.219L52.8907 152.829L55.2833 156.453C55.2833 156.453 59.2709 162.292 60.6666 163.903C62.0623 165.514 63.458 166.722 65.4518 168.333C67.645 170.346 68.4425 171.353 71.2339 173.567C75.2215 176.789 73.8259 177.997 68.6419 175.178C66.8475 174.171 64.0561 173.165 61.8629 172.561C59.4703 171.957 50.4981 169.541 45.9123 168.937C41.5259 168.333 40.7283 168.534 40.7283 168.534C40.7283 168.534 38.5351 168.333 35.9432 169.943C33.3512 171.554 31.9555 172.762 31.9555 172.762C31.9555 172.762 28.9648 176.185 28.7654 176.789C28.566 177.393 27.1703 179.809 27.1703 179.809C27.1703 179.809 26.3728 181.017 26.1734 182.426C25.7746 183.836 25.974 185.245 25.974 185.245L26.1734 188.265L26.3728 191.084C26.3728 191.084 26.9709 198.131 28.3666 205.178C28.7654 207.191 29.1641 210.412 29.1641 210.412L30.1611 217.661C30.1611 217.661 30.7592 225.312 31.3573 227.929C31.9555 230.345 32.3543 230.546 32.753 232.157C33.5506 235.177 32.1549 236.587 33.5506 240.211C34.9462 243.835 36.1425 243.432 37.5382 245.647C38.5351 247.258 38.9339 247.66 39.7314 249.674C40.529 251.687 43.1209 258.331 46.1117 263.163C49.3018 268.197 53.4888 274.438 56.2802 273.834C59.0715 273.23 61.0654 268.801 61.0654 268.801C61.0654 268.801 64.2555 260.143 62.2617 251.687C60.2678 243.029 51.0962 247.056 49.8999 240.815C49.7006 239.405 49.8999 237.191 49.8999 237.191C49.8999 237.191 49.7006 234.573 49.3018 233.768C48.903 232.962 45.7129 226.922 44.5166 221.889C43.5197 218.063 43.7191 205.782 42.9215 202.359C40.7283 193.5 40.529 194.305 41.7252 192.695C43.1209 191.084 44.3172 191.487 44.3172 191.487L46.1117 191.688L47.5073 192.292C47.5073 192.292 49.1024 193.299 50.0993 193.903C50.8969 194.507 53.6882 196.721 53.6882 196.721L60.4672 201.151C60.4672 201.151 64.2555 203.366 65.8506 204.171C67.4456 204.976 68.8413 205.983 68.8413 205.983L70.6357 207.191L73.6265 209.406L74.2246 210.01L74.6234 210.815C74.6234 210.815 76.0191 214.037 82.0006 217.459C86.7857 220.278 90.9728 219.473 92.7672 221.687C93.166 222.09 96.5555 226.721 98.1506 229.54C100.144 232.761 102.537 236.587 103.335 237.795C104.132 239.003 109.117 245.244 109.117 245.244L115.696 252.492L124.27 260.546L132.046 267.19L137.03 271.217C137.03 271.217 141.417 275.445 146.401 278.868C151.186 282.089 151.386 282.492 154.576 284.707C156.968 286.317 160.159 288.532 163.349 290.948C166.539 293.566 170.128 298.398 168.732 300.008C167.735 300.612 165.941 297.995 162.551 294.975C159.76 292.559 158.364 291.351 155.573 289.337C151.984 286.519 150.189 285.109 146.202 282.693C144.208 281.485 140.619 279.27 140.42 279.673C139.024 283.901 139.223 287.928 139.423 293.163C139.622 296.787 140.22 300.411 141.417 305.042C142.414 309.471 143.41 311.887 145.006 316.116C146.601 320.344 149.591 326.988 149.591 326.988L154.177 336.249L158.364 343.296L160.557 346.92L161.355 348.128C161.355 348.128 162.352 350.545 161.355 352.155C160.358 353.766 159.162 357.189 157.367 357.39C155.573 357.793 151.386 357.994 151.386 357.994L127.659 357.591L115.297 356.585C115.297 356.585 113.902 355.779 106.724 355.779C102.537 355.779 99.1475 357.591 96.7549 357.793C94.761 357.994 84.9913 357.189 78.4117 359.806C72.2308 362.424 69.4394 363.028 67.2462 367.054C65.6512 370.074 75.0222 374.907 82.7981 376.719C95.3592 379.537 91.7703 374.101 96.5555 370.678C97.1536 370.276 97.353 369.873 97.9512 369.672C101.141 368.665 102.936 371.283 106.126 371.283C109.715 371.283 111.709 370.074 115.297 369.47C133.441 367.054 161.754 375.712 161.754 375.712C161.754 375.712 168.732 377.927 171.922 377.323C175.71 376.517 174.913 375.108 176.109 372.893C177.106 371.081 176.707 370.678 176.907 368.665C176.907 367.457 176.707 366.853 176.508 365.645C175.71 362.222 173.517 357.39 173.517 357.39C173.517 357.39 171.922 353.766 171.324 351.954C170.526 349.337 169.729 347.726 169.33 344.907C168.134 337.458 168.333 338.062 168.333 333.833C168.333 326.183 169.131 321.954 171.125 314.505C174.115 303.632 179.698 299.002 183.885 288.532C185.081 285.713 185.081 281.687 186.477 281.284C188.072 281.082 187.873 286.317 187.075 289.337C184.483 299.807 178.103 304.237 175.112 314.908C172.919 323.162 171.723 327.995 172.321 336.451C172.52 341.082 174.315 348.33 174.315 348.33C174.315 348.33 176.707 356.383 177.904 359.403C179.1 362.424 181.493 367.457 181.493 367.457L186.876 377.121L189.667 381.752C189.667 381.752 191.661 383.564 190.664 386.584C189.667 389.604 187.673 391.416 185.281 394.034C178.502 402.087 162.751 413.966 158.763 416.785C153.18 421.013 153.38 422.221 152.981 423.429C150.788 429.872 144.407 430.074 137.429 437.724C135.834 439.335 131.647 443.765 132.444 447.59C132.843 448.999 149.99 452.02 159.959 447.791C167.735 444.369 160.956 440.543 163.149 436.718C164.744 433.899 168.732 433.899 170.526 431.483C173.517 427.456 171.523 427.658 174.115 424.436C182.689 413.966 188.272 407.926 203.624 398.463C205.02 397.658 207.612 396.45 207.612 396.45C207.612 396.45 209.805 395.443 210.602 394.235C211.599 392.624 211.4 391.215 211.4 389.403C211.4 388.195 211.201 387.591 211.201 386.383C211.201 384.974 211.4 384.168 211.001 382.759C210.602 380.544 209.207 378.732 208.409 377.524C207.612 376.517 206.216 374.705 205.418 370.88C204.422 367.054 204.422 363.833 206.017 359.605C207.612 355.377 211.201 351.954 211.201 351.954L220.173 345.914C220.173 345.914 227.949 340.276 230.341 338.062C232.933 335.847 237.918 331.216 241.507 325.981C245.694 320.142 247.887 316.518 249.681 309.471C250.28 306.854 250.878 302.827 250.878 302.827C250.878 302.827 250.878 300.008 252.473 299.807C254.068 299.606 254.467 300.21 254.467 300.21C254.467 300.21 255.862 301.015 256.261 305.042C256.46 309.069 255.264 313.699 255.264 313.699C255.264 313.699 254.068 318.33 253.669 321.149C253.47 322.961 253.47 323.968 253.47 325.981C253.47 329.404 254.865 332.223 254.865 332.223C254.865 332.223 255.663 332.827 255.663 331.417C255.663 329.807 256.062 327.391 256.66 324.974C257.258 322.961 257.657 323.364 258.853 319.941C260.448 315.512 259.052 315.914 259.85 313.297C260.249 312.089 261.246 310.881 262.442 310.881C263.638 310.881 263.838 312.491 263.838 312.491C263.838 312.491 265.034 317.726 264.037 322.558C263.04 327.391 259.451 334.035 259.451 334.035L256.66 338.867C256.66 338.867 254.666 342.29 253.868 344.504C253.071 346.92 252.872 347.927 253.27 350.142C253.868 352.558 255.663 355.779 256.66 355.175C257.457 354.571 255.464 352.558 257.856 347.726C260.249 342.894 263.439 339.874 263.439 339.874C263.439 339.874 267.825 334.639 269.819 330.612C271.614 326.988 273.408 321.149 273.408 321.149C273.408 321.149 274.804 315.914 274.405 311.485C274.206 307.257 273.408 305.042 273.408 305.042L271.614 301.82L270.617 299.404L271.015 297.995C271.414 297.794 272.81 298.8 274.006 300.411C275.202 302.022 276.399 304.035 276.997 306.854C277.595 308.867 277.794 310.679 277.794 312.491C277.794 314.102 277.196 320.746 279.589 324.974C280.586 326.988 282.978 331.619 283.178 329.605C283.577 324.974 281.583 322.76 281.782 318.532C281.981 313.699 283.178 314.907 283.577 312.491C283.975 309.874 284.573 309.27 284.175 305.847C283.776 302.626 282.38 298.398 282.38 298.398L280.985 295.176L280.386 293.968C280.386 293.968 280.785 293.364 281.383 293.364L286.168 291.753C286.168 291.753 292.349 288.935 294.742 286.921C297.334 285.109 300.325 281.888 300.325 281.888C300.325 281.888 304.312 276.854 306.306 273.23C311.091 264.17 311.091 252.694 310.892 247.459C310.693 242.425 309.297 235.781 309.297 235.781C309.297 235.781 307.702 227.728 308.101 222.493C308.499 217.258 308.898 214.842 308.898 214.842C308.898 214.842 308.699 209.607 313.085 203.97C317.472 198.332 319.465 194.708 320.263 190.48C321.06 186.856 319.864 181.017 318.269 183.232ZM186.278 146.991C185.68 146.991 184.882 146.185 184.882 146.185C184.882 146.185 184.683 145.984 185.281 145.581C185.879 145.178 186.676 145.38 186.676 145.38L187.275 145.581L188.272 146.991C188.072 147.595 186.876 147.192 186.278 146.991ZM188.67 140.346C188.072 140.145 187.075 139.541 187.075 139.541C187.075 139.541 186.876 139.138 187.474 138.736C188.072 138.333 189.069 138.534 189.069 138.534L189.667 138.937C189.867 139.138 190.864 140.145 190.864 140.548C190.864 141.152 189.468 140.548 188.67 140.346ZM190.864 133.501C190.066 133.299 188.87 132.494 188.87 132.494C188.87 132.494 188.67 132.091 189.468 131.689C190.265 131.286 191.462 131.487 191.462 131.487L192.259 131.89C192.658 132.293 193.655 133.299 193.655 133.903C193.455 134.508 191.661 133.702 190.864 133.501ZM192.658 127.259C191.86 127.058 190.664 126.253 190.664 126.253C190.664 126.253 190.465 125.85 191.262 125.447C192.06 125.045 193.256 125.246 193.256 125.246L194.054 125.649C194.452 126.051 195.449 127.058 195.449 127.662C195.25 128.065 193.455 127.259 192.658 127.259ZM194.452 119.81C193.456 119.608 192.259 118.602 192.259 118.602C192.259 118.602 192.06 118.199 192.857 117.595C193.655 116.991 195.051 117.394 195.051 117.394L195.848 117.796C196.247 118.199 197.443 119.407 197.443 120.011C197.443 120.816 195.25 119.81 194.452 119.81ZM195.649 111.756C194.452 111.555 192.857 110.347 192.857 110.347C192.857 110.347 192.459 109.743 193.655 109.139C194.652 108.535 196.247 108.736 196.247 108.736L197.244 109.34C197.643 109.743 199.038 111.353 199.238 112.159C199.238 112.964 196.845 111.958 195.649 111.756ZM196.446 103.703C195.051 103.501 193.057 101.891 193.057 101.891C193.057 101.891 192.658 101.287 193.854 100.481C195.051 99.6758 197.044 100.078 197.044 100.078C197.044 100.078 197.643 100.28 198.241 100.683C198.839 101.287 200.434 103.099 200.633 104.105C200.833 105.112 197.842 103.904 196.446 103.703ZM197.643 94.441C196.047 94.2396 193.854 92.4276 193.854 92.4276C193.854 92.4276 193.456 91.6222 194.851 90.8169C196.247 89.8102 198.44 90.4142 198.44 90.4142C198.44 90.4142 199.238 90.6155 199.836 91.2196C200.434 91.8236 202.428 94.0383 202.627 95.045C202.627 96.253 199.238 94.6423 197.643 94.441ZM196.845 56.9919C195.649 56.7905 194.054 55.5825 194.054 55.5825C194.054 55.5825 193.655 55.1798 194.851 54.5758C196.047 53.9718 197.643 54.3745 197.643 54.3745C197.643 54.3745 198.241 54.5758 198.639 54.9785C199.038 55.3812 200.633 56.7905 200.633 57.5959C200.633 58.1999 198.041 57.1932 196.845 56.9919ZM201.231 66.0521C201.431 66.8575 198.639 65.8508 197.244 65.6495C196.047 65.4481 194.253 64.0388 194.253 64.0388C194.253 64.0388 193.854 63.4347 195.051 62.8307C196.247 62.0254 197.842 62.428 197.842 62.428C197.842 62.428 198.44 62.6294 199.038 63.0321C199.636 63.6361 201.032 65.2468 201.231 66.0521ZM195.449 80.9513C196.646 80.1459 198.639 80.5486 198.639 80.5486C198.639 80.5486 199.238 80.7499 199.836 81.1526C200.434 81.7566 202.029 83.5687 202.228 84.5754C202.428 85.5821 199.437 84.374 198.041 83.9713C196.646 83.77 194.652 82.1593 194.652 82.1593C194.652 82.1593 194.253 81.7566 195.449 80.9513ZM198.041 74.1057C196.646 73.9044 194.652 72.2937 194.652 72.2937C194.652 72.2937 194.253 71.6896 195.449 70.8843C196.646 70.0789 198.639 70.4816 198.639 70.4816C198.639 70.4816 199.238 70.6829 199.836 71.0856C200.434 71.6896 202.029 73.5017 202.228 74.5084C202.428 75.7164 199.437 74.5084 198.041 74.1057ZM200.633 43.9048C202.228 44.3075 202.627 45.3142 201.83 45.3142C201.032 45.5155 200.633 45.5155 200.035 45.5155C198.241 45.5155 198.44 44.7102 196.047 45.9182C193.655 47.1263 195.449 46.5222 192.06 47.7303C188.87 48.9383 189.667 45.7169 189.667 45.7169C189.667 45.7169 189.867 45.1129 190.265 43.5021C190.664 41.8914 192.658 43.5021 194.054 43.5021C196.646 43.5021 198.839 43.5021 200.633 43.9048ZM191.661 31.4218L192.658 32.0258C193.057 32.4285 194.452 34.0392 194.652 34.8446C194.851 35.6499 192.259 34.6432 191.262 34.4419C190.066 34.2405 188.471 33.0325 188.471 33.0325C188.471 33.0325 188.072 32.4285 189.268 31.8245C190.265 31.0191 191.661 31.4218 191.661 31.4218ZM184.483 21.7575C185.48 21.1535 187.075 21.3548 187.075 21.3548L188.072 21.9588C188.471 22.3615 189.867 23.9722 190.066 24.7776C190.265 25.5829 187.673 24.5763 186.676 24.3749C185.48 24.1736 183.885 22.9655 183.885 22.9655C183.885 22.9655 183.486 22.3615 184.483 21.7575ZM182.489 152.225C183.088 151.823 183.885 152.024 183.885 152.024L184.483 152.225L185.48 153.635C185.48 154.037 184.284 153.433 183.686 153.433C183.088 153.433 182.29 152.628 182.29 152.628C182.29 152.628 181.891 152.427 182.489 152.225ZM102.537 56.3879C101.939 56.7905 101.54 56.9919 100.743 57.5959C99.7456 58.4013 98.7487 60.4146 98.1506 59.8106C97.353 59.2066 97.7518 56.9919 97.7518 56.9919C97.7518 56.9919 98.3499 55.3812 99.1475 53.7704C100.144 52.1597 101.341 52.1597 101.341 52.1597C102.537 52.1597 104.73 52.9651 104.73 54.7771C104.93 56.5892 103.534 55.7838 102.537 56.3879ZM118.886 62.6294C118.886 62.6294 118.089 62.8307 117.889 61.4213C117.69 60.012 118.886 59.8106 118.886 59.8106C118.886 59.8106 121.279 58.6026 121.279 60.2133C121.478 61.6227 118.886 62.6294 118.886 62.6294ZM140.22 35.2472C140.22 35.2472 137.628 39.4754 134.039 41.0861C130.451 42.6968 128.058 43.5021 121.279 44.1062C120.282 44.1062 120.681 43.5021 120.681 43.5021C120.681 43.5021 128.457 41.2874 132.843 38.8713C135.236 37.462 138.027 35.6499 138.825 34.8446C141.616 32.4285 140.22 35.2472 140.22 35.2472ZM6.23512 209.607C6.23512 210.614 5.03883 212.426 4.64006 212.426C4.2413 212.426 3.44377 210.614 3.64315 209.607C3.84253 208.6 4.04191 205.782 5.63698 206.184C6.83327 206.386 6.23512 208.6 6.23512 209.607ZM11.4191 186.856C11.4191 186.856 9.62463 190.681 9.02648 189.07C8.42833 187.661 9.62463 185.044 9.62463 185.044C11.2197 183.634 11.8178 181.621 12.6154 182.426C13.2135 183.232 11.4191 186.856 11.4191 186.856ZM36.1425 147.595C34.3481 149.608 28.7654 160.279 27.5691 158.467C26.3728 157.058 32.9524 146.991 34.3481 144.977C35.7438 142.762 36.9401 143.165 36.9401 143.165L37.3388 143.568C37.1394 143.568 37.937 145.581 36.1425 147.595ZM51.0962 131.689C51.0962 131.689 47.1086 132.494 47.7067 131.085C48.5043 129.675 51.2956 129.071 51.2956 129.071C53.4888 129.474 53.8876 129.675 53.6882 130.682C53.8876 131.689 51.0962 131.689 51.0962 131.689ZM67.2462 159.876C65.4518 161.688 64.8536 159.272 62.2617 156.252C59.6697 153.433 60.2678 151.017 60.2678 151.017H60.6666L61.0654 151.219L62.0623 151.621L62.6604 152.225L64.6543 154.239C65.4518 155.447 67.645 159.474 67.2462 159.876ZM36.3419 220.077C35.7438 220.077 35.1456 218.869 35.1456 218.869C35.1456 218.869 33.5506 216.453 32.9524 214.641C32.3543 213.03 32.1549 210.412 32.1549 210.412C32.1549 210.412 31.7561 206.99 31.7561 205.782C31.9555 204.171 31.9555 202.762 32.1549 201.956C32.3543 201.151 33.1518 201.352 33.1518 201.352C34.3481 201.352 34.3481 202.359 34.3481 202.359V202.963C34.3481 202.963 34.3481 206.587 34.5475 209.406C34.5475 210.211 36.7407 219.271 36.7407 219.271C36.7407 219.271 37.1394 220.077 36.3419 220.077ZM35.9432 177.795C34.5475 180.01 33.5506 180.01 33.5506 180.01C33.5506 179.809 33.1518 179.003 34.3481 176.587C35.5444 174.171 36.7407 174.373 36.7407 174.373L37.1394 174.775C37.1394 174.775 37.3388 175.581 35.9432 177.795ZM50.0993 262.157C50.4981 261.351 53.0901 263.365 53.0901 263.365C54.087 263.566 55.0839 265.378 55.0839 265.378C55.0839 265.378 55.4827 266.787 54.2864 267.19C53.0901 267.794 52.2925 266.586 52.2925 266.586C52.2925 266.586 49.7006 262.962 50.0993 262.157ZM68.8413 200.547C66.0499 199.943 60.0685 195.312 57.6759 194.104C55.2833 192.896 51.2956 192.493 53.0901 190.883C53.2894 190.681 53.4888 190.278 53.8876 190.278C54.2864 190.278 56.0808 190.883 56.0808 190.883L60.4672 192.695C60.6666 192.695 62.8598 193.701 64.6543 194.708C66.2493 195.715 69.0407 197.527 69.0407 197.527L70.237 198.533C70.237 198.936 71.6326 201.151 68.8413 200.547ZM93.166 160.48C93.166 160.48 89.7765 165.111 87.7827 167.93C85.1907 171.755 82.0006 177.594 81.4024 176.99C80.8043 176.386 84.1938 169.943 85.9882 166.52C87.982 162.292 90.9728 160.078 92.1691 159.675C94.761 158.467 93.166 160.48 93.166 160.48ZM82.3993 362.021C82.3993 362.021 82.3993 362.826 81.0036 363.833C79.608 364.84 79.0098 364.236 78.8104 364.236C78.611 364.236 77.2154 363.43 77.2154 362.625C77.4148 361.82 79.608 361.216 79.608 361.216C83.3962 361.014 82.3993 362.021 82.3993 362.021ZM113.304 360.813C111.908 360.612 111.709 360.209 111.908 360.008C111.908 359.806 112.307 359.403 113.902 359.403C115.497 359.403 115.497 360.209 115.497 360.209C115.497 360.813 114.899 361.014 113.304 360.813ZM148.794 362.826C145.803 363.632 144.607 363.229 142.015 363.43C139.822 363.632 138.825 363.833 136.631 363.833C132.843 363.833 132.444 364.034 127.061 362.424C126.064 362.021 124.868 360.813 125.267 360.41C125.665 359.806 126.463 360.008 126.463 360.008C126.463 360.008 133.242 361.216 137.628 361.417C140.818 361.618 142.414 361.82 145.604 361.618C147.398 361.618 146.401 361.417 149.193 361.417C150.189 361.216 149.591 362.625 148.794 362.826ZM167.735 357.189C167.536 357.39 166.339 357.793 165.343 357.994C164.146 358.195 164.744 357.189 164.744 357.189C164.744 357.189 165.542 355.981 166.539 355.377C167.735 354.773 168.333 355.377 168.333 355.377C168.732 356.182 167.935 356.987 167.735 357.189ZM182.489 318.532C181.094 321.552 180.695 322.558 180.496 325.377C180.097 328.397 181.891 336.853 179.1 333.632C178.103 332.223 177.106 325.578 177.904 322.357C179.299 315.109 185.081 313.095 182.489 318.532ZM142.214 441.55C141.018 442.355 143.41 444.771 139.622 444.57C137.429 444.369 138.625 442.355 138.825 442.154L140.22 440.141C141.217 438.731 141.815 438.53 142.812 437.926C143.809 437.322 144.607 438.932 144.607 438.932C144.607 438.932 145.006 439.537 145.006 440.342C145.006 440.946 143.211 440.745 142.214 441.55ZM163.149 421.215L161.355 422.624C161.156 422.624 159.959 423.631 159.56 423.027C159.162 422.423 159.76 421.617 159.76 421.416C159.76 421.215 160.956 419.805 161.953 419.403C162.95 418.799 163.548 419.403 163.548 419.403C164.146 420.812 163.149 421.215 163.149 421.215ZM172.52 68.4682C172.52 68.4682 171.723 71.0856 170.128 71.6896C168.134 72.2937 160.557 72.495 160.358 71.891C160.159 71.287 169.131 70.4816 172.52 67.0588C173.318 66.2535 172.52 68.4682 172.52 68.4682ZM169.729 61.824C170.327 60.8173 169.928 63.4347 169.928 63.4347C169.928 63.4347 169.33 66.0521 167.935 66.8575C166.14 67.8642 161.754 69.0722 161.355 68.4682C161.355 68.0655 167.137 66.2535 169.729 61.824ZM157.367 31.6231C157.367 31.6231 158.165 31.6231 159.361 32.2271C160.557 33.0325 161.355 35.4486 161.355 35.4486C161.355 35.4486 161.554 35.8513 160.557 35.8513C159.959 35.8513 159.959 34.8446 159.361 34.4419C158.564 33.8379 157.965 33.6365 156.968 33.2338C155.972 32.8312 154.576 33.4352 154.376 32.4285C154.376 31.2204 157.367 31.6231 157.367 31.6231ZM148.196 38.2673C148.196 38.2673 148.594 37.0593 150.389 36.0526C151.984 35.0459 154.177 35.0459 154.177 35.0459C154.177 35.0459 155.373 35.0459 156.769 36.0526C158.165 37.0593 159.361 40.4821 159.361 40.4821C159.361 40.4821 159.76 42.6968 158.763 43.5021C157.766 44.3075 156.171 42.8981 155.373 41.6901C154.376 40.4821 153.778 40.0794 152.383 39.6767C150.788 39.0727 148.395 40.8847 147.996 39.6767C147.996 39.274 148.196 38.2673 148.196 38.2673ZM147.597 66.0521C146.401 66.2535 147.199 65.0454 147.199 65.0454C147.199 65.0454 150.588 63.6361 152.781 62.428C156.37 60.616 163.149 53.3678 161.355 56.7905C160.557 58.4013 158.165 60.4146 158.165 60.4146C158.165 60.4146 155.373 64.4414 154.775 65.0454C152.183 67.0588 148.993 65.8508 147.597 66.0521ZM119.485 144.172L119.684 143.769C119.684 143.769 125.665 139.742 135.036 140.95C140.619 141.756 146.002 146.789 145.205 147.393C144.407 147.997 143.211 147.393 142.812 147.393L140.818 146.387L137.828 145.581C137.828 145.581 132.444 144.373 128.457 144.574C124.469 144.776 120.88 146.185 120.88 146.185C120.88 146.185 119.285 146.991 118.886 145.984C118.687 144.776 119.485 144.172 119.485 144.172ZM134.239 257.526C120.481 246.855 103.733 225.11 105.727 223.097C107.522 221.486 114.301 231.553 124.469 242.627C135.236 254.304 147.797 265.378 148.196 266.787C148.993 269.203 139.423 261.553 134.239 257.526ZM165.542 107.125C159.76 117.192 151.785 124.843 151.785 124.843C148.993 126.857 150.788 123.233 150.788 123.233C150.788 123.233 158.564 112.36 162.152 104.709C164.744 99.2731 166.339 92.0249 167.536 90.6155C170.327 87.1928 168.931 101.085 165.542 107.125ZM181.493 217.459C175.511 210.211 171.125 202.359 169.729 192.493C169.33 190.279 169.33 187.057 171.324 187.46C173.118 187.661 172.919 191.084 172.919 191.889C173.517 197.728 175.91 203.567 180.296 210.614C186.477 220.479 196.446 228.13 196.047 228.734C195.051 229.741 185.081 221.889 181.493 217.459ZM183.287 405.712C179.897 408.933 174.115 413.362 174.115 413.362H173.318V412.356L173.517 411.953L173.916 411.349L174.315 410.745L174.714 410.141L175.91 408.732L178.701 406.114L181.493 403.497L185.879 399.067C185.879 399.067 187.474 397.255 188.072 396.853C188.67 396.45 189.069 396.047 189.667 395.645C190.465 395.242 191.462 394.638 191.86 395.041V395.846C192.06 396.45 186.876 402.289 183.287 405.712ZM195.649 256.72C193.057 258.533 192.06 258.331 190.465 260.143C188.67 262.358 188.072 269.807 186.278 266.787C184.483 263.767 185.68 259.539 188.67 256.318C192.259 252.09 200.035 253.499 195.649 256.72ZM205.02 389.202C206.216 388.799 206.814 389 206.814 389L207.213 389.806C207.213 390.007 205.618 392.222 204.82 392.222C203.823 392.02 204.222 390.812 204.222 390.812C204.222 390.812 203.823 389.604 205.02 389.202ZM239.114 307.257C237.32 306.049 240.111 302.424 240.111 299.404C240.111 296.988 239.712 295.176 239.712 293.163C239.712 291.149 241.706 290.545 241.706 290.545C242.105 290.545 242.902 290.948 243.899 292.962C244.896 294.975 242.304 309.27 239.114 307.257ZM300.125 249.674C299.727 258.13 299.328 264.17 294.343 270.613C288.362 278.465 277.994 286.519 280.187 280.076C281.583 276.25 290.754 271.418 294.343 260.747C296.337 254.304 296.736 248.264 296.736 248.264L296.337 235.983C296.337 235.983 296.138 234.976 296.138 233.566C296.736 231.956 297.533 233.164 297.533 233.164L297.932 233.768C297.932 234.17 300.325 243.633 300.125 249.674Z" fill="#E2E2E2"/>
</svg>
